<svg xmlns="http://www.w3.org/2000/svg" xmlns:xlink="http://www.w3.org/1999/xlink" width="1080" height="1920" viewBox="0 0 1080 1920">
  <defs>
    <clipPath id="clip-Benutzerdefiniert_1">
      <rect width="1080" height="1920"/>
    </clipPath>
  </defs>
  <g id="Benutzerdefiniert_1" data-name="Benutzerdefiniert – 1" clip-path="url(#clip-Benutzerdefiniert_1)">
    <rect width="1080" height="1920" fill="#fff"/>
    <g id="Gruppe_1" data-name="Gruppe 1" transform="translate(76 642)">
      <circle id="Ellipse_1" data-name="Ellipse 1" cx="233" cy="233" r="233" transform="translate(313.409)" fill="#f2f2f2"/>
      <path id="Pfad_1" data-name="Pfad 1" d="M267.148,695.739a39.063,39.063,0,0,0,37.721-6.645c13.212-11.089,17.354-29.359,20.725-46.275l9.969-50.036-20.872,14.371c-15.01,10.335-30.357,21-40.75,35.971s-14.929,35.405-6.579,51.6" transform="translate(-135.737 -132.394)" fill="#e6e6e6"/>
      <path id="Pfad_2" data-name="Pfad 2" d="M268.932,756.318c-2.112-15.388-4.285-30.972-2.8-46.525,1.316-13.812,5.53-27.3,14.109-38.364a63.82,63.82,0,0,1,16.374-14.838c1.637-1.033,3.144,1.561,1.514,2.59a60.672,60.672,0,0,0-24,28.956c-5.225,13.289-6.064,27.776-5.164,41.893.544,8.537,1.7,17.018,2.861,25.489a1.554,1.554,0,0,1-1.048,1.845,1.509,1.509,0,0,1-1.845-1.048Z" transform="translate(-135.737 -132.394)" fill="#f2f2f2"/>
      <path id="Pfad_3" data-name="Pfad 3" d="M408.733,735.124a22.264,22.264,0,0,0,20.462,7.606c9.692-1.644,17-9.432,23.529-16.778l19.325-21.728-14.4,1.051c-10.359.755-20.98,1.575-30.4,5.94s-17.546,13.1-18.109,23.476" transform="translate(-135.737 -132.394)" fill="#e6e6e6"/>
      <path id="Pfad_4" data-name="Pfad 4" d="M392.149,765.424c3.4-8.175,6.821-16.464,12.033-23.683,4.628-6.412,10.589-11.83,18-14.8a36.374,36.374,0,0,1,12.328-2.575c1.1-.036,1.1,1.674,0,1.71a34.579,34.579,0,0,0-20.146,7.319c-6.4,5.028-10.988,11.909-14.615,19.109-2.193,4.354-4.071,8.857-5.94,13.357a.886.886,0,0,1-1.047.605.86.86,0,0,1-.605-1.047Z" transform="translate(-135.737 -132.394)" fill="#f2f2f2"/>
      <path id="Pfad_5" data-name="Pfad 5" d="M289.28,729.089a28.755,28.755,0,0,0,25.055,12.931c12.683-.6,23.257-9.454,32.775-17.858L375.263,699.3l-18.633-.891c-13.4-.641-27.145-1.239-39.908,2.893s-24.533,14.077-26.867,27.287" transform="translate(-135.737 -132.394)" fill="#e6e6e6"/>
      <path id="Pfad_6" data-name="Pfad 6" d="M262.962,765.163c10.168-17.991,21.961-37.986,43.035-44.377a48.023,48.023,0,0,1,18.1-1.869c1.922.166,1.442,3.128-.476,2.963a44.614,44.614,0,0,0-28.887,7.642c-8.145,5.544-14.487,13.252-19.854,21.425-3.288,5.007-6.233,10.226-9.178,15.438-.941,1.666-3.693.463-2.74-1.222Z" transform="translate(-135.737 -132.394)" fill="#f2f2f2"/>
      <path id="Pfad_7" data-name="Pfad 7" d="M702.07,458.075c20.217-11.112,45.379-8.882,67.161-1.285s41.522,20.043,62.675,29.249c64.64,28.131,142.548,23.595,203.487-11.848,5.763,13.406-.419,28.74-7.211,41.656s-14.532,26.914-11.736,41.236c3.578,18.327,22.793,29.315,30.579,46.288,7.391,16.112,3.424,35.033-2.246,51.827s-13.028,33.715-12.064,51.415,13.823,36.416,31.549,36.43c-26.269,4.082-53.055,8.166-79.309,3.983s-52.369-18.068-64.558-41.693c-6.093-11.809-8.441-25.386-15.439-36.682-11.918-19.241-34.791-28.289-56.372-35.108s-44.676-13.388-59.871-30.162c-14.478-15.982-19.063-38.246-26.734-58.4a186.536,186.536,0,0,0-64.588-84.23" transform="translate(-135.737 -132.394)" fill="#6da1b4"/>
      <path id="Pfad_8" data-name="Pfad 8" d="M725.495,374.338c-7.1-3.3-15.81-4.384-23.032-1.316s-12.144,10.931-9.809,17.891c1.059,3.155,3.47,6.258,2.531,9.445-.723,2.453-3.245,4.072-5.723,5.224s-5.187,2.12-6.978,4.062-2.165,5.285.073,6.791c.737.5,1.659.732,2.374,1.254a3.772,3.772,0,0,1,1.164,4.222,8.893,8.893,0,0,1-2.851,3.751c-2.541,2.191-5.9,4.7-5.109,7.809a5.478,5.478,0,0,0,3.7,3.458,18.368,18.368,0,0,0,5.427.716l74.966,2.362a28.421,28.421,0,0,0,7.4-.413,8.762,8.762,0,0,0,5.813-3.9c1.436-2.657.493-5.931-1.28-8.412s-4.282-4.439-6.355-6.717-3.769-5.123-3.4-8.067c.293-2.357,1.847-4.395,2.963-6.537s1.764-4.818.319-6.789c-2.037-2.777-6.927-2.526-9.243-5.113-1.748-1.953-1.41-4.763-1.584-7.281-.418-6.057-4.611-11.776-10.58-14.433a20.831,20.831,0,0,0-18.953,1.291Z" transform="translate(-135.737 -132.394)" fill="#b4cdd5"/>
      <path id="Pfad_9" data-name="Pfad 9" d="M542.385,622.1l-11.741-3.528,8.019-46.967,17.329,5.207Z" fill="#a0616a"/>
      <path id="Pfad_10" data-name="Pfad 10" d="M677.7,766.774,639.838,755.4l.144-.479a15.386,15.386,0,0,1,19.163-10.309h0l23.123,6.947Z" transform="translate(-135.737 -132.394)" fill="#2f2e41"/>
      <path id="Pfad_11" data-name="Pfad 11" d="M653.182,622.5h-12.26l-5.832-47.288h18.094Z" fill="#a0616a"/>
      <path id="Pfad_12" data-name="Pfad 12" d="M792.045,766.774H752.514v-.5A15.386,15.386,0,0,1,767.9,750.886h24.145Z" transform="translate(-135.737 -132.394)" fill="#2f2e41"/>
      <path id="Pfad_13" data-name="Pfad 13" d="M771.9,719.123a4.5,4.5,0,0,1-4.441-3.788l-18.2-113.554a3.5,3.5,0,0,0-6.688-.789L695.406,714.528a4.516,4.516,0,0,1-5.579,2.544l-17.034-5.679a4.485,4.485,0,0,1-2.966-5.261l38.649-171.021a4.525,4.525,0,0,1,3.372-3.392l51.832-12.032a4.562,4.562,0,0,1,3.708.77c34.13,24.8,31.247,105.821,24.886,193.8a4.5,4.5,0,0,1-4.294,4.174l-15.882.691C772.032,719.122,771.966,719.123,771.9,719.123Z" transform="translate(-135.737 -132.394)" fill="#2f2e41"/>
      <circle id="Ellipse_2" data-name="Ellipse 2" cx="24.561" cy="24.561" r="24.561" transform="translate(567.971 257.91)" fill="#a0616a"/>
      <path id="Pfad_14" data-name="Pfad 14" d="M729.329,542.162a39.9,39.9,0,0,1-17.024-3.935l-.183-.085-.073-.188-22.029-57.076-.419-9.917a23.773,23.773,0,0,1,25.09-24.741l23.388,1.317a23.787,23.787,0,0,1,22.437,23.61c.607,1.167,4.921,10.292-3.533,18.865-.316,1.952-3.273,22.247,7.887,33.407l.314.313-.274.349C764.732,524.309,750.4,542.159,729.329,542.162Z" transform="translate(-135.737 -132.394)" fill="#3f5e6b"/>
      <path id="Pfad_15" data-name="Pfad 15" d="M762.171,546.467a10.056,10.056,0,0,0,5.277-14.488l23.359-27.043-18.414-2.4-19.359,26.048a10.11,10.11,0,0,0,9.137,17.88Z" transform="translate(-135.737 -132.394)" fill="#a0616a"/>
      <path id="Pfad_16" data-name="Pfad 16" d="M776.775,525.594a4.489,4.489,0,0,1-2.468-.74l-11.554-7.578a4.491,4.491,0,0,1-1.4-6.064l8.364-14.052a6.272,6.272,0,0,0-2.824-8.932l-24.028-10.772a14.324,14.324,0,0,1-8.112-15.915h0a14.241,14.241,0,0,1,20.432-9.754l36.452,18.679a19.177,19.177,0,0,1,6.8,28.289l-18.02,24.97a4.489,4.489,0,0,1-3.649,1.869Z" transform="translate(-135.737 -132.394)" fill="#3f5e6b"/>
      <path id="Pfad_17" data-name="Pfad 17" d="M703.142,411.373c7.756-.623,14.2-8.371,13.39-16.111a13.009,13.009,0,0,0,11.141,13.246c3.558.392,7.458-.684,10.555,1.11,3.43,1.988,4.528,6.816,8.1,8.533,3.453,1.659,7.838-.6,9.543-4.033s1.287-7.55.157-11.21a31.653,31.653,0,0,0-52.69-12.975c-3.261,3.28-5.851,7.461-6.271,12.068s1.717,9.605,5.854,11.675Z" transform="translate(-135.737 -132.394)" fill="#b4cdd5"/>
      <path id="Pfad_18" data-name="Pfad 18" d="M646,343.338a10.056,10.056,0,0,1,3.1,15.1l19.159,30.165-18.567-.318-15.347-28.6A10.11,10.11,0,0,1,646,343.338Z" transform="translate(-135.737 -132.394)" fill="#a0616a"/>
      <path id="Pfad_19" data-name="Pfad 19" d="M661.444,364.818l24.674,58.3,25.869,43.864a14.189,14.189,0,0,1-8.12,20.79h0a14.265,14.265,0,0,1-16.951-7.569L637.058,373.672a4.5,4.5,0,0,1,2.7-6.191l16.166-5.193a4.6,4.6,0,0,1,.943-.2,4.474,4.474,0,0,1,4.578,2.728Z" transform="translate(-135.737 -132.394)" fill="#3f5e6b"/>
      <path id="Pfad_20" data-name="Pfad 20" d="M892.737,767.606h-756a1,1,0,1,1,0-2h756a1,1,0,0,1,0,2Z" transform="translate(-135.737 -132.394)" fill="#ccc"/>
      <path id="Pfad_21" data-name="Pfad 21" d="M733.595,240.606v82a1,1,0,0,1-2,0v-82a1,1,0,1,1,2,0Z" transform="translate(-135.737 -132.394)" fill="#ccc"/>
      <path id="Pfad_22" data-name="Pfad 22" d="M820.421,310.171l-28.284,28.284a1,1,0,0,1-1.414-1.414l28.284-28.284a1,1,0,1,1,1.414,1.414Z" transform="translate(-135.737 -132.394)" fill="#ccc"/>
      <path id="Pfad_23" data-name="Pfad 23" d="M644.77,310.171l28.284,28.285a1,1,0,0,0,1.414-1.414l-28.284-28.284a1,1,0,0,0-1.414,1.414Z" transform="translate(-135.737 -132.394)" fill="#ccc"/>
    </g>
    <text id="Successfull_with" data-name="Successfull with" transform="translate(129 117)" fill="#707070" font-size="150" font-family="ProximaNova-Regular, Proxima Nova"><tspan x="-367.8" y="138">Successfull </tspan><tspan x="-135.375" y="321">with</tspan></text>
    <text id="LIST_YOUR_LIFE" data-name="LIST YOUR LIFE" transform="translate(129 1425)" fill="#707070" font-size="150" font-family="ProximaNova-Regular, Proxima Nova"><tspan x="-361.2" y="138">LIST YOUR </tspan><tspan x="-140.1" y="321">LIFE</tspan></text>
  </g>
</svg>
